<svg xmlns="http://www.w3.org/2000/svg" width="800" height="450" viewBox="0 0 800 450">
  <rect width="800" height="450" fill="#0d1117" rx="8"/>
  <rect x="0" y="0" width="800" height="36" fill="#161b22" rx="8"/>
  <rect x="0" y="28" width="800" height="8" fill="#161b22"/>
  <circle cx="16" cy="18" r="5" fill="#ff5f57"/>
  <circle cx="34" cy="18" r="5" fill="#ffbd2e"/>
  <circle cx="52" cy="18" r="5" fill="#28c840"/>
  <text x="70" y="24" fill="#00ff00" font-size="14" font-family="monospace" font-weight="bold">ShellHub</text>
  <text x="140" y="24" fill="#8b949e" font-size="12" font-family="monospace">session manager</text>
  <circle cx="740" cy="18" r="4" fill="#00ff00"/>
  <text x="750" y="24" fill="#8b949e" font-size="11" font-family="monospace">connected</text>

  <!-- Sidebar -->
  <rect x="0" y="36" width="280" height="414" fill="#161b22"/>
  <text x="12" y="60" fill="#8b949e" font-size="11" font-family="monospace" font-weight="bold">SESSIONS</text>
  <rect x="0" y="68" width="280" height="1" fill="#30363d"/>

  <!-- Session 1 (active) -->
  <rect x="0" y="72" width="280" height="44" fill="#1f2937"/>
  <rect x="0" y="72" width="3" height="44" fill="#00ff00"/>
  <text x="18" y="90" fill="#c9d1d9" font-size="13" font-family="monospace" font-weight="bold">THM Pickle Rick</text>
  <text x="18" y="106" fill="#8b949e" font-size="10" font-family="monospace">10.10.xxx.xxx:49216</text>
  <text x="200" y="106" fill="#8b949e" font-size="10" font-family="monospace">🏆 THM{flag1}</text>

  <!-- Session 2 -->
  <rect x="0" y="116" width="280" height="44" fill="#161b22"/>
  <text x="18" y="134" fill="#c9d1d9" font-size="13" font-family="monospace">10.10.xxx.xxx:49218</text>
  <text x="18" y="150" fill="#8b949e" font-size="10" font-family="monospace">10.10.xxx.xxx:49218</text>

  <!-- Notes panel -->
  <rect x="0" y="164" width="280" height="1" fill="#30363d"/>
  <text x="12" y="184" fill="#8b949e" font-size="10" font-family="monospace">FLAGS</text>
  <rect x="12" y="192" width="256" height="28" fill="#0d1117" rx="4"/>
  <text x="18" y="210" fill="#c9d1d9" font-size="12" font-family="monospace">THM{flag1}, THM{flag2}</text>
  <text x="12" y="232" fill="#8b949e" font-size="10" font-family="monospace">NOTES</text>
  <rect x="12" y="240" width="256" height="80" fill="#0d1117" rx="4"/>
  <text x="18" y="258" fill="#8b949e" font-size="11" font-family="monospace">user: rick</text>
  <text x="18" y="274" fill="#8b949e" font-size="11" font-family="monospace">pass: WubbaLubbaDubDub</text>
  <text x="18" y="290" fill="#8b949e" font-size="11" font-family="monospace">sudo su -&gt; root</text>

  <!-- Terminal area -->
  <rect x="280" y="36" width="520" height="414" fill="#0d1117"/>
  <rect x="280" y="40" width="520" height="24" fill="#161b22"/>
  <text x="296" y="56" fill="#8b949e" font-size="11" font-family="monospace"><tspan fill="#c9d1d9" font-weight="bold">Session:</tspan> THM Pickle Rick</text>
  <text x="440" y="56" fill="#8b949e" font-size="11" font-family="monospace"><tspan fill="#c9d1d9" font-weight="bold">Addr:</tspan> 10.10.xxx.xxx:49216</text>

  <text x="296" y="88" fill="#00ff00" font-size="12" font-family="monospace">[*] Connected to session a1b2c3d4</text>
  <text x="296" y="112" fill="#c9d1d9" font-size="12" font-family="monospace">$ whoami</text>
  <text x="296" y="132" fill="#c9d1d9" font-size="12" font-family="monospace">rick</text>
  <text x="296" y="156" fill="#c9d1d9" font-size="12" font-family="monospace">$ sudo -l</text>
  <text x="296" y="176" fill="#c9d1d9" font-size="12" font-family="monospace">User rick may run the following commands on ip-10-10-xxx-xxx:</text>
  <text x="296" y="196" fill="#c9d1d9" font-size="12" font-family="monospace">    (ALL) NOPASSWD: ALL</text>
  <text x="296" y="220" fill="#c9d1d9" font-size="12" font-family="monospace">$ sudo su</text>
  <text x="296" y="244" fill="#ffa657" font-size="12" font-family="monospace">root@ip-10-10-xxx-xxx:/home/rick#</text>
  <text x="296" y="264" fill="#c9d1d9" font-size="12" font-family="monospace">cat /root/flag.txt</text>
  <text x="296" y="284" fill="#c9d1d9" font-size="12" font-family="monospace">THM{5257739f4c8490adf6c371105a68b1}</text>
</svg>
